<svg width="1152" height="203" viewBox="0 0 1152 203" fill="none" xmlns="http://www.w3.org/2000/svg">
<path d="M195.611 0C193.822 0 192.106 0.710603 190.841 1.97549L1.98901 190.828C-2.25993 195.077 0.749331 202.342 6.75824 202.342H68.618C70.4068 202.342 72.1224 201.631 73.3873 200.366L255.494 18.2595C259.743 14.0106 267.008 17.0199 267.008 23.0288V195.597C267.008 199.322 270.028 202.342 273.753 202.342H327.711C331.436 202.342 334.455 199.322 334.455 195.597V6.74474C334.455 3.01973 331.436 1.85854e-05 327.711 1.65204e-05L195.611 0Z" fill="#FAFAFA"/>
<path d="M195.611 0C193.822 0 192.106 0.710603 190.841 1.97549L1.98901 190.828C-2.25993 195.077 0.749331 202.342 6.75824 202.342H68.618C70.4068 202.342 72.1224 201.631 73.3873 200.366L255.494 18.2595C259.743 14.0106 267.008 17.0199 267.008 23.0288V195.597C267.008 199.322 270.028 202.342 273.753 202.342H327.711C331.436 202.342 334.455 199.322 334.455 195.597V6.74474C334.455 3.01973 331.436 1.85854e-05 327.711 1.65204e-05L195.611 0Z" fill="url(#paint0_radial_1_2)"/>
<path d="M877.546 0.266196L745.446 0.266199C743.657 0.266199 741.942 0.976803 740.677 2.24168L551.825 191.094C547.576 195.343 550.585 202.608 556.594 202.608H618.454C620.242 202.608 621.958 201.897 623.223 200.633L805.33 18.5255C809.579 14.2766 816.844 17.2859 816.844 23.2948V195.863C816.844 199.588 819.863 202.608 823.588 202.608H886.163C887.951 202.608 889.667 201.897 890.932 200.633L1073.04 18.5256C1077.29 14.2766 1084.55 17.2859 1084.55 23.2948V195.863C1084.55 199.588 1087.57 202.608 1091.3 202.608H1145.26C1148.98 202.608 1152 199.588 1152 195.863V7.01093C1152 3.28592 1148.98 0.266196 1145.26 0.266196L1013.16 0.266199C1011.37 0.266199 1009.65 0.976803 1008.39 2.24168L885.47 125.158C885.035 125.593 884.291 125.285 884.291 124.67V7.01093C884.291 3.28592 881.271 0.266196 877.546 0.266196Z" fill="#FAFAFA"/>
<path d="M877.546 0.266196L745.446 0.266199C743.657 0.266199 741.942 0.976803 740.677 2.24168L551.825 191.094C547.576 195.343 550.585 202.608 556.594 202.608H618.454C620.242 202.608 621.958 201.897 623.223 200.633L805.33 18.5255C809.579 14.2766 816.844 17.2859 816.844 23.2948V195.863C816.844 199.588 819.863 202.608 823.588 202.608H886.163C887.951 202.608 889.667 201.897 890.932 200.633L1073.04 18.5256C1077.29 14.2766 1084.55 17.2859 1084.55 23.2948V195.863C1084.55 199.588 1087.57 202.608 1091.3 202.608H1145.26C1148.98 202.608 1152 199.588 1152 195.863V7.01093C1152 3.28592 1148.98 0.266196 1145.26 0.266196L1013.16 0.266199C1011.37 0.266199 1009.65 0.976803 1008.39 2.24168L885.47 125.158C885.035 125.593 884.291 125.285 884.291 124.67V7.01093C884.291 3.28592 881.271 0.266196 877.546 0.266196Z" fill="url(#paint1_radial_1_2)"/>
<path d="M501.283 202.343C503.071 202.343 504.787 201.633 506.052 200.368L694.904 11.5153C699.153 7.26638 696.144 0.0013416 690.135 0.00134213L628.275 0.00134753C626.486 0.00134769 624.771 0.711951 623.506 1.97683L441.399 184.083C437.15 188.332 429.885 185.323 429.885 179.314L429.885 6.74602C429.885 3.02101 426.866 0.00128885 423.141 0.00128917L369.183 0.00129389C365.458 0.00129422 362.438 3.02101 362.438 6.74602L362.438 195.598C362.438 199.323 365.458 202.343 369.183 202.343L501.283 202.343Z" fill="#FAFAFA"/>
<path d="M501.283 202.343C503.071 202.343 504.787 201.633 506.052 200.368L694.904 11.5153C699.153 7.26638 696.144 0.0013416 690.135 0.00134213L628.275 0.00134753C626.486 0.00134769 624.771 0.711951 623.506 1.97683L441.399 184.083C437.15 188.332 429.885 185.323 429.885 179.314L429.885 6.74602C429.885 3.02101 426.866 0.00128885 423.141 0.00128917L369.183 0.00129389C365.458 0.00129422 362.438 3.02101 362.438 6.74602L362.438 195.598C362.438 199.323 365.458 202.343 369.183 202.343L501.283 202.343Z" fill="url(#paint2_radial_1_2)"/>
<defs>
<radialGradient id="paint0_radial_1_2" cx="0" cy="0" r="1" gradientUnits="userSpaceOnUse" gradientTransform="translate(16.5964 190.693) rotate(1.14709) scale(1121.6 213.783)">
<stop stop-color="#00F2FF"/>
<stop offset="0.0869648" stop-color="#0085FF"/>
<stop offset="0.420709" stop-color="#8F00FF"/>
<stop offset="0.691521" stop-color="#FF6823"/>
<stop offset="0.842783" stop-color="#FFBD25"/>
<stop offset="1" stop-color="#F9E9A9"/>
</radialGradient>
<radialGradient id="paint1_radial_1_2" cx="0" cy="0" r="1" gradientUnits="userSpaceOnUse" gradientTransform="translate(16.5964 190.693) rotate(1.14709) scale(1121.6 213.783)">
<stop stop-color="#00F2FF"/>
<stop offset="0.0869648" stop-color="#0085FF"/>
<stop offset="0.420709" stop-color="#8F00FF"/>
<stop offset="0.691521" stop-color="#FF6823"/>
<stop offset="0.842783" stop-color="#FFBD25"/>
<stop offset="1" stop-color="#F9E9A9"/>
</radialGradient>
<radialGradient id="paint2_radial_1_2" cx="0" cy="0" r="1" gradientUnits="userSpaceOnUse" gradientTransform="translate(16.5964 190.693) rotate(1.14709) scale(1121.6 213.783)">
<stop stop-color="#00F2FF"/>
<stop offset="0.0869648" stop-color="#0085FF"/>
<stop offset="0.420709" stop-color="#8F00FF"/>
<stop offset="0.691521" stop-color="#FF6823"/>
<stop offset="0.842783" stop-color="#FFBD25"/>
<stop offset="1" stop-color="#F9E9A9"/>
</radialGradient>
</defs>
</svg>
