<svg width="600" height="600" viewBox="0 0 600 600" fill="none" xmlns="http://www.w3.org/2000/svg">
<g clip-path="url(#clip0_2024_87)">
<mask id="path-1-inside-1_2024_87" fill="white">
<path d="M0 0H60V600H0V0Z"/>
</mask>
<path d="M59 0V600H61V0H59Z" fill="#373737" mask="url(#path-1-inside-1_2024_87)"/>
<mask id="path-3-inside-2_2024_87" fill="white">
<path d="M600 0L600 60L-2.62268e-06 60L0 -2.62268e-05L600 0Z"/>
</mask>
<path d="M600 59L-2.57897e-06 59L-2.66639e-06 61L600 61L600 59Z" fill="#373737" mask="url(#path-3-inside-2_2024_87)"/>
<mask id="path-5-inside-3_2024_87" fill="white">
<path d="M60 0H120V600H60V0Z"/>
</mask>
<path d="M119 0V600H121V0H119Z" fill="#373737" mask="url(#path-5-inside-3_2024_87)"/>
<mask id="path-7-inside-4_2024_87" fill="white">
<path d="M600 60L600 120L-2.62268e-06 120L0 60L600 60Z"/>
</mask>
<path d="M600 119L-2.57897e-06 119L-2.66639e-06 121L600 121L600 119Z" fill="#373737" mask="url(#path-7-inside-4_2024_87)"/>
<mask id="path-9-inside-5_2024_87" fill="white">
<path d="M120 0H180V600H120V0Z"/>
</mask>
<path d="M179 0V600H181V0H179Z" fill="#373737" mask="url(#path-9-inside-5_2024_87)"/>
<mask id="path-11-inside-6_2024_87" fill="white">
<path d="M600 120L600 180L-2.62268e-06 180L0 120L600 120Z"/>
</mask>
<path d="M600 179L-2.57897e-06 179L-2.66639e-06 181L600 181L600 179Z" fill="#373737" mask="url(#path-11-inside-6_2024_87)"/>
<mask id="path-13-inside-7_2024_87" fill="white">
<path d="M180 0H240V600H180V0Z"/>
</mask>
<path d="M239 0V600H241V0H239Z" fill="#373737" mask="url(#path-13-inside-7_2024_87)"/>
<mask id="path-15-inside-8_2024_87" fill="white">
<path d="M600 180L600 240L-2.62268e-06 240L0 180L600 180Z"/>
</mask>
<path d="M600 239L-2.57897e-06 239L-2.66639e-06 241L600 241L600 239Z" fill="#373737" mask="url(#path-15-inside-8_2024_87)"/>
<mask id="path-17-inside-9_2024_87" fill="white">
<path d="M240 0H300V600H240V0Z"/>
</mask>
<path d="M299 0V600H301V0H299Z" fill="#373737" mask="url(#path-17-inside-9_2024_87)"/>
<mask id="path-19-inside-10_2024_87" fill="white">
<path d="M600 240L600 300L-2.62268e-06 300L0 240L600 240Z"/>
</mask>
<path d="M600 299L-2.57897e-06 299L-2.66639e-06 301L600 301L600 299Z" fill="#373737" mask="url(#path-19-inside-10_2024_87)"/>
<mask id="path-21-inside-11_2024_87" fill="white">
<path d="M300 0H360V600H300V0Z"/>
</mask>
<path d="M359 0V600H361V0H359Z" fill="#373737" mask="url(#path-21-inside-11_2024_87)"/>
<mask id="path-23-inside-12_2024_87" fill="white">
<path d="M600 300L600 360L-2.62268e-06 360L0 300L600 300Z"/>
</mask>
<path d="M600 359L-2.57897e-06 359L-2.66639e-06 361L600 361L600 359Z" fill="#373737" mask="url(#path-23-inside-12_2024_87)"/>
<mask id="path-25-inside-13_2024_87" fill="white">
<path d="M360 0H420V600H360V0Z"/>
</mask>
<path d="M419 0V600H421V0H419Z" fill="#373737" mask="url(#path-25-inside-13_2024_87)"/>
<mask id="path-27-inside-14_2024_87" fill="white">
<path d="M600 360L600 420L-2.62268e-06 420L0 360L600 360Z"/>
</mask>
<path d="M600 419L-2.57897e-06 419L-2.66639e-06 421L600 421L600 419Z" fill="#373737" mask="url(#path-27-inside-14_2024_87)"/>
<mask id="path-29-inside-15_2024_87" fill="white">
<path d="M420 0H480V600H420V0Z"/>
</mask>
<path d="M479 0V600H481V0H479Z" fill="#373737" mask="url(#path-29-inside-15_2024_87)"/>
<mask id="path-31-inside-16_2024_87" fill="white">
<path d="M600 420L600 480L-2.62268e-06 480L0 420L600 420Z"/>
</mask>
<path d="M600 479L-2.57897e-06 479L-2.66639e-06 481L600 481L600 479Z" fill="#373737" mask="url(#path-31-inside-16_2024_87)"/>
<mask id="path-33-inside-17_2024_87" fill="white">
<path d="M480 0H540V600H480V0Z"/>
</mask>
<path d="M539 0V600H541V0H539Z" fill="#373737" mask="url(#path-33-inside-17_2024_87)"/>
<mask id="path-35-inside-18_2024_87" fill="white">
<path d="M600 480L600 540L-2.62268e-06 540L0 480L600 480Z"/>
</mask>
<path d="M600 539L-2.57897e-06 539L-2.66639e-06 541L600 541L600 539Z" fill="#373737" mask="url(#path-35-inside-18_2024_87)"/>
<path fill-rule="evenodd" clip-rule="evenodd" d="M119 0H60V59H119V0ZM180 0H239V59H180V0ZM300 1H359V60H300V1ZM359 120H300V179H359V120ZM479 120H420V179H479V120ZM420 180H479V239H420V180ZM480 300H539V359H480V300ZM480 120H539V179H480V120ZM479 60H420V119H479V60ZM179 240H120V299H179V240ZM120 480H179V539H120V480ZM179 420H120V479H179V420ZM120 360H179V419H120V360ZM479 540H420V599H479V540ZM300 420H359V479H300V420ZM359 480H300V539H359V480ZM360 300H419V359H360V300ZM120 60H179V119H120V60ZM299 480H240V539H299V480ZM180 480H239V539H180V480ZM239 540H180V599H239V540ZM480 480H539V539H480V480ZM119 420H60V479H119V420ZM0 120H59V179H0V120ZM59 300H0V359H59V300ZM0 540H59V599H0V540ZM599 0H540V59H599V0ZM540 360H599V419H540V360ZM299 240H240V299H299V240ZM239 360H180V419H239V360ZM180 300H239V359H180V300Z" fill="#FAFAFA"/>
<path fill-rule="evenodd" clip-rule="evenodd" d="M119 0H60V59H119V0ZM180 0H239V59H180V0ZM300 1H359V60H300V1ZM359 120H300V179H359V120ZM479 120H420V179H479V120ZM420 180H479V239H420V180ZM480 300H539V359H480V300ZM480 120H539V179H480V120ZM479 60H420V119H479V60ZM179 240H120V299H179V240ZM120 480H179V539H120V480ZM179 420H120V479H179V420ZM120 360H179V419H120V360ZM479 540H420V599H479V540ZM300 420H359V479H300V420ZM359 480H300V539H359V480ZM360 300H419V359H360V300ZM120 60H179V119H120V60ZM299 480H240V539H299V480ZM180 480H239V539H180V480ZM239 540H180V599H239V540ZM480 480H539V539H480V480ZM119 420H60V479H119V420ZM0 120H59V179H0V120ZM59 300H0V359H59V300ZM0 540H59V599H0V540ZM599 0H540V59H599V0ZM540 360H599V419H540V360ZM299 240H240V299H299V240ZM239 360H180V419H239V360ZM180 300H239V359H180V300Z" fill="url(#paint0_radial_2024_87)"/>
</g>
<defs>
<radialGradient id="paint0_radial_2024_87" cx="0" cy="0" r="1" gradientUnits="userSpaceOnUse" gradientTransform="translate(-3.95941e-05 591.5) rotate(-44.3225) scale(837.273 506.074)">
<stop stop-color="#00F2FF"/>
<stop offset="0.18233" stop-color="#0085FF"/>
<stop offset="0.420709" stop-color="#8F00FF"/>
<stop offset="0.691521" stop-color="#FF6823"/>
<stop offset="0.842783" stop-color="#FFBD25"/>
<stop offset="1" stop-color="#F9E9A9"/>
</radialGradient>
<clipPath id="clip0_2024_87">
<rect width="600" height="600" fill="white"/>
</clipPath>
</defs>
</svg>
