<svg width="242" height="64" viewBox="0 0 242 64" fill="none" xmlns="http://www.w3.org/2000/svg">
<g clip-path="url(#clip0_2085_65)">
<path fill-rule="evenodd" clip-rule="evenodd" d="M32.9067 15.8747C32.6173 14.8913 32.3973 13.8888 32.248 12.8747V9.92C37.7633 9.9746 43.0569 12.0989 47.08 15.872L32.9067 15.8747ZM31.0667 15.8747C31.368 14.88 31.5973 13.8613 31.752 12.8213V9.92C26.2367 9.9746 20.9431 12.0989 16.92 15.872H31.064L31.0667 15.8747ZM16.5787 16.3733H30.9067C30.6984 17.0028 30.4608 17.6221 30.1947 18.2293C29.094 20.862 27.5011 23.2605 25.5013 25.296L16.5787 16.3733ZM15.8747 15.8747H7.93867V16.3733H15.712C11.7314 20.5098 9.48281 26.0116 9.42667 31.752H0V32.248H9.42667C9.48281 37.9884 11.7314 43.4902 15.712 47.6267H7.93867V48.1227H15.8747V56.0613H16.3733V48.288C20.5098 52.2686 26.0116 54.5172 31.752 54.5733V64H32.248V54.5733C37.9884 54.5172 43.4902 52.2686 47.6267 48.288V56.0613H48.1227V48.1227H56.0613V47.6267H48.288C52.2686 43.4902 54.5172 37.9884 54.5733 32.248H64V31.752H54.5733C54.5172 26.0116 52.2686 20.5098 48.288 16.3733H56.0613V15.8747H48.1227V7.93867H47.6267V15.712C43.4902 11.7314 37.9884 9.48281 32.248 9.42667V0H31.752V9.42667C26.0116 9.48281 20.5098 11.7314 16.3733 15.712V7.93867H15.8747V15.8747ZM32.248 54.0773C37.7637 54.022 43.0573 51.8967 47.08 48.1227H32.9067C32.6187 49.1013 32.4 50.104 32.248 51.1253V54.0773ZM31.752 51.1787C31.5977 50.1445 31.3678 49.1231 31.064 48.1227H16.92C20.9427 51.8967 26.2363 54.022 31.752 54.0773V51.1787ZM9.92267 31.752H12.8747C13.8888 31.6028 14.8913 31.3827 15.8747 31.0933V16.92C12.1016 20.9431 9.97727 26.2367 9.92267 31.752ZM12.8213 32.248H9.92C9.9746 37.7633 12.0989 43.0569 15.872 47.08V32.936C14.8724 32.6323 13.8546 32.4024 12.8213 32.248ZM54.0747 31.752C54.0201 26.2367 51.8958 20.9431 48.1227 16.92V31.0933C49.1013 31.3813 50.104 31.6 51.1253 31.752H54.0747ZM51.1787 32.248C50.1387 32.4027 49.12 32.632 48.1227 32.936V47.08C51.8967 43.0573 54.022 37.7637 54.0773 32.248H51.1787ZM47.6267 47.4213V33.0933C46.9972 33.3016 46.3779 33.5392 45.7707 33.8053C43.1379 34.9059 40.7395 36.4989 38.704 38.4987L47.6267 47.4213ZM47.6267 30.9413V16.408L47.5947 16.3733H33.0587C33.2613 17 33.4907 17.6213 33.752 18.2293C34.9048 20.9018 36.5504 23.3335 38.6027 25.3973C40.6663 27.4506 43.0979 29.097 45.7707 30.2507C46.3787 30.5093 46.9973 30.7387 47.6267 30.9413ZM16.3733 47.5947V33.0933C17 33.3013 17.6213 33.5387 18.2293 33.8053C20.9068 34.9252 23.3412 36.5545 25.3973 38.6027C27.4455 40.6588 29.0748 43.0932 30.1947 45.7707C30.4613 46.3787 30.7013 46.9973 30.9067 47.6267H16.4053L16.3733 47.5947ZM16.3733 30.9413V16.8693L25.1467 25.6427C23.1365 27.5818 20.7933 29.1428 18.2293 30.2507C17.6215 30.509 17.0022 30.7395 16.3733 30.9413ZM33.0587 47.6267H47.1307L38.3573 38.8533C36.4182 40.8635 34.8572 43.2067 33.7493 45.7707C33.491 46.3785 33.2605 46.9978 33.0587 47.6267ZM26.8 26.8C24.5866 29.0038 21.9822 30.7763 19.12 32.0267C21.9871 33.2445 24.5941 35.0006 26.8 37.2C28.9994 39.4059 30.7555 42.0129 31.9733 44.88C33.2237 42.0178 34.9962 39.4134 37.2 37.2C39.4059 35.0006 42.0129 33.2445 44.88 32.0267C42.0178 30.7763 39.4134 29.0038 37.2 26.8C34.9961 24.5867 33.2237 21.9823 31.9733 19.12C30.7555 21.9871 28.9994 24.5941 26.8 26.8Z" fill="white"/>
</g>
<path fill-rule="evenodd" clip-rule="evenodd" d="M96.8129 47.8333C93.6219 47.8333 90.6822 47.0733 87.994 45.5517C85.33 44.0525 83.1208 41.8828 81.5941 39.2659C80.0131 36.5932 79.2234 33.6435 79.2234 30.4167C79.2234 27.1867 80.0131 24.2385 81.5925 21.569C83.1197 18.952 85.3294 16.7822 87.994 15.2832C90.6822 13.76 93.6219 13 96.8129 13C99.311 13 101.658 13.4354 103.856 14.3047C106.051 15.1739 107.861 16.3994 109.284 17.9827L106.391 20.8232C105.316 19.5202 103.941 18.5179 102.265 17.8197C100.555 17.1142 98.7163 16.7576 96.8613 16.7715C94.4599 16.7715 92.223 17.3383 90.152 18.472C88.081 19.6057 86.4226 21.2032 85.1736 23.2695C83.9246 25.331 83.3009 27.7139 83.3009 30.4167C83.3009 33.1178 83.9246 35.4992 85.1736 37.5654C86.369 39.5795 88.0978 41.2375 90.1762 42.3629C92.2187 43.4847 94.5213 44.0699 96.8613 44.0618C99.1369 44.0618 101.042 43.7135 102.575 43.0137C104.062 42.3469 105.406 41.4063 106.533 40.2428C107.387 39.3236 108.062 38.2584 108.525 37.0999C109.031 35.8728 109.347 34.5143 109.472 33.0244H96.908V29.3463H113.218C113.376 30.2156 113.455 31.0215 113.455 31.7672C113.455 33.8161 113.124 35.8111 112.46 37.7522C111.812 39.6677 110.725 41.4118 109.284 42.8506C106.154 46.1708 101.996 47.8333 96.8129 47.8333ZM126.994 47.8333C124.686 47.8333 122.617 47.2902 120.783 46.2025C118.957 45.1236 117.472 43.568 116.493 41.709C115.465 39.7995 114.95 37.6509 114.95 35.2601C114.95 32.9627 115.434 30.8521 116.398 28.9267C117.315 27.0538 118.733 25.4604 120.499 24.3161C122.269 23.1682 124.324 22.5934 126.662 22.5934C129.031 22.5934 131.088 23.1127 132.825 24.153C134.553 25.1816 135.944 26.6765 136.832 28.4597C137.765 30.2932 138.231 32.3879 138.231 34.7471C138.231 35.2126 138.182 35.6179 138.089 35.9583H118.981C119.076 37.7586 119.519 39.2802 120.309 40.5215C121.099 41.7644 122.103 42.6954 123.32 43.3161C124.496 43.9269 125.806 44.2465 127.136 44.2471C130.234 44.2471 132.621 42.8189 134.295 39.9626L137.71 41.5934C136.666 43.5187 135.252 45.0387 133.467 46.1566C131.679 47.2744 129.523 47.8333 126.993 47.8333H126.994ZM133.963 32.6982C133.886 31.6584 133.596 30.6447 133.109 29.7184C132.604 28.7241 131.807 27.8865 130.716 27.2041C129.626 26.5201 128.258 26.1797 126.616 26.1797C124.719 26.1797 123.113 26.7766 121.803 27.972C120.491 29.1674 119.629 30.7428 119.218 32.6982H133.963ZM140.769 23.3376H144.61V26.8304H144.8C145.496 25.6207 146.539 24.6106 147.93 23.8047C149.26 23.0139 150.784 22.5951 152.339 22.5934C154.109 22.5934 155.649 23.013 156.961 23.8506C158.238 24.6478 159.226 25.8217 159.782 27.2041C160.613 25.8286 161.778 24.6765 163.173 23.8506C164.58 23.0114 166.215 22.5934 168.08 22.5934C170.862 22.5934 172.955 23.4231 174.362 25.084C175.768 26.7465 176.472 29.0043 176.472 31.8607V47.0876H172.49V32.4655C172.49 30.2615 172.03 28.6623 171.115 27.668C170.196 26.6752 168.838 26.1797 167.037 26.1797C165.835 26.1797 164.746 26.5201 163.766 27.2041C162.786 27.8865 162.019 28.8032 161.466 29.9512C160.909 31.1164 160.625 32.3895 160.636 33.6767V47.0876H156.607V32.513C156.607 30.2773 156.147 28.6623 155.23 27.668C154.313 26.6752 152.971 26.1797 151.201 26.1797C149.999 26.1797 148.91 26.528 147.93 27.2262C146.95 27.9245 146.183 28.8571 145.63 30.0208C145.074 31.1949 144.791 32.4755 144.8 33.7702V47.0876H140.771L140.769 23.3376ZM180.101 23.3376H183.942V26.8304H184.131C184.827 25.6207 185.871 24.6106 187.26 23.8047C188.59 23.0139 190.115 22.5951 191.67 22.5934C193.439 22.5934 194.98 23.013 196.292 23.8506C197.569 24.6478 198.556 25.8217 199.112 27.2041C199.944 25.8286 201.109 24.6765 202.503 23.8506C203.91 23.0114 205.546 22.5934 207.411 22.5934C210.193 22.5934 212.286 23.4231 213.693 25.084C215.1 26.7465 215.804 29.0043 215.804 31.8607V47.0876H211.82V32.4655C211.82 30.2615 211.363 28.6623 210.446 27.668C209.529 26.6752 208.17 26.1797 206.368 26.1797C205.167 26.1797 204.076 26.5201 203.096 27.2041C202.117 27.8865 201.349 28.8032 200.797 29.9512C200.24 31.1164 199.956 32.3895 199.967 33.6767V47.0876H195.938V32.513C195.938 30.2773 195.478 28.6623 194.563 27.668C193.644 26.6752 192.302 26.1797 190.532 26.1797C189.331 26.1797 188.24 26.528 187.26 27.2262C186.281 27.9245 185.513 28.8571 184.961 30.0208C184.405 31.1949 184.122 32.4755 184.131 33.7702V47.0876H180.101V23.3376ZM226.923 47.8333C225.153 47.8333 223.572 47.4913 222.182 46.8089C220.791 46.1265 219.716 45.186 218.958 43.9906C218.201 42.7967 217.82 41.4382 217.82 39.9167C217.82 37.4023 218.784 35.439 220.712 34.0267C222.641 32.6127 225.075 31.9066 228.013 31.9066C229.468 31.9066 230.82 32.0617 232.067 32.3721C233.317 32.6824 234.272 33.0402 234.936 33.444V32C234.936 30.2298 234.304 28.8096 233.039 27.7392C231.776 26.6673 230.179 26.1322 228.251 26.1322C226.95 26.1186 225.665 26.4141 224.506 26.9935C223.401 27.5385 222.467 28.3675 221.803 29.3922L218.768 27.155C219.717 25.7268 221.021 24.609 222.68 23.8031C224.34 22.9956 226.18 22.5918 228.204 22.5918C231.492 22.5918 234.076 23.4373 235.956 25.1299C237.837 26.8209 238.777 29.1262 238.777 32.0443V47.086H234.936V43.6866H234.748C234.053 44.8361 233.01 45.813 231.619 46.6205C230.229 47.428 228.662 47.8333 226.923 47.8333ZM227.303 44.3405C228.662 44.3405 229.926 43.9985 231.096 43.3161C232.25 42.6481 233.213 41.7028 233.893 40.569C234.588 39.4195 234.936 38.1623 234.936 36.7959C234.179 36.3003 233.244 35.8966 232.138 35.5862C230.997 35.2711 229.816 35.1144 228.63 35.1207C226.417 35.1207 224.751 35.5704 223.629 36.4713C222.506 37.3707 221.945 38.5344 221.945 39.9626C221.945 41.2672 222.451 42.3217 223.463 43.1292C224.473 43.9367 225.755 44.3405 227.303 44.3405Z" fill="white"/>
<defs>
<clipPath id="clip0_2085_65">
<rect width="64" height="64" fill="white"/>
</clipPath>
</defs>
</svg>
