<svg width="213" height="64" viewBox="0 0 213 64" fill="none" xmlns="http://www.w3.org/2000/svg">
<path fill-rule="evenodd" clip-rule="evenodd" d="M33.6106 3.57334C34.6586 5.41334 35.7012 7.25867 36.7412 9.10667C36.7833 9.18057 36.8442 9.24199 36.9178 9.28462C36.9913 9.32726 37.0749 9.34959 37.1599 9.34934H51.9652C52.4292 9.34934 52.8239 9.64267 53.1546 10.2213L57.0319 17.0747C57.5386 17.9733 57.6719 18.3493 57.0959 19.3067C56.4026 20.4533 55.7279 21.6107 55.0692 22.7733L54.0906 24.528C53.8079 25.0507 53.4959 25.2747 53.9839 25.8933L61.0559 38.2587C61.5146 39.0613 61.3519 39.576 60.9413 40.312C59.7759 42.4053 58.5892 44.4827 57.3812 46.552C56.9572 47.2773 56.4426 47.552 55.5679 47.5387C53.4959 47.496 51.4292 47.512 49.3626 47.5813C49.3183 47.5836 49.2753 47.597 49.2375 47.6203C49.1998 47.6436 49.1685 47.6761 49.1466 47.7147C46.7621 51.9394 44.3577 56.1528 41.9333 60.3547C41.4826 61.136 40.9199 61.3227 39.9999 61.3253C37.3412 61.3333 34.6612 61.336 31.9546 61.3307C31.7026 61.33 31.4552 61.2628 31.2375 61.1359C31.0198 61.009 30.8394 60.8269 30.7146 60.608L27.1546 54.4133C27.1339 54.3728 27.1021 54.339 27.0629 54.3159C27.0237 54.2927 26.9787 54.2812 26.9333 54.2827H13.2853C12.5253 54.3627 11.8106 54.28 11.1386 54.0373L6.86392 46.6507C6.7375 46.432 6.67049 46.184 6.66956 45.9314C6.66862 45.6788 6.73379 45.4303 6.85858 45.2107L10.0773 39.5573C10.1231 39.4774 10.1472 39.3868 10.1472 39.2947C10.1472 39.2025 10.1231 39.112 10.0773 39.032C8.40064 36.1293 6.73396 33.2208 5.07725 30.3067L2.97058 26.5867C2.54392 25.76 2.50925 25.264 3.22392 24.0133C4.46392 21.8453 5.69592 19.68 6.92258 17.5173C7.27458 16.8933 7.73325 16.6267 8.47992 16.624C10.7812 16.6143 13.0826 16.6134 15.3839 16.6213C15.442 16.6209 15.499 16.6051 15.5491 16.5756C15.5992 16.5461 15.6407 16.504 15.6692 16.4533L23.1519 3.4C23.2653 3.20143 23.429 3.03624 23.6266 2.92107C23.8242 2.80591 24.0486 2.74483 24.2773 2.744C25.6746 2.74134 27.0853 2.744 28.4986 2.728L31.2106 2.66667C32.1199 2.65867 33.1413 2.752 33.6106 3.57334ZM24.4586 4.648C24.4305 4.64799 24.4029 4.65537 24.3785 4.66941C24.3542 4.68346 24.334 4.70367 24.3199 4.728L16.6773 18.1013C16.6406 18.1644 16.588 18.2167 16.5249 18.2532C16.4618 18.2897 16.3902 18.309 16.3172 18.3093H8.67458C8.52525 18.3093 8.48792 18.376 8.56525 18.5067L24.0586 45.5893C24.1253 45.7013 24.0932 45.7547 23.9679 45.7573L16.5146 45.7973C16.4056 45.7937 16.2978 45.8208 16.2035 45.8755C16.1092 45.9302 16.0322 46.0103 15.9812 46.1067L12.4613 52.2667C12.3439 52.4747 12.4053 52.5813 12.6426 52.5813L27.8852 52.6027C28.0079 52.6027 28.0986 52.656 28.1626 52.7653L31.9039 59.3093C32.0266 59.5253 32.1492 59.528 32.2746 59.3093L45.6239 35.9493L47.7119 32.264C47.7247 32.2412 47.7432 32.2223 47.7657 32.2091C47.7882 32.1959 47.8138 32.1889 47.8399 32.1889C47.866 32.1889 47.8916 32.1959 47.9141 32.2091C47.9366 32.2223 47.9552 32.2412 47.9679 32.264L51.7653 39.0107C51.7938 39.0612 51.8352 39.1031 51.8854 39.1322C51.9356 39.1612 51.9926 39.1764 52.0506 39.176L59.4186 39.1227C59.4375 39.1228 59.4561 39.118 59.4725 39.1086C59.4889 39.0993 59.5025 39.0857 59.5119 39.0693C59.521 39.053 59.5258 39.0347 59.5258 39.016C59.5258 38.9973 59.521 38.979 59.5119 38.9627L51.7786 25.4C51.7508 25.3547 51.736 25.3025 51.736 25.2493C51.736 25.1961 51.7508 25.144 51.7786 25.0987L52.5599 23.7467L55.5466 18.4747C55.6106 18.3653 55.5786 18.3093 55.4532 18.3093H24.5333C24.3759 18.3093 24.3386 18.24 24.4186 18.104L28.2426 11.424C28.2712 11.3785 28.2864 11.3258 28.2864 11.272C28.2864 11.2182 28.2712 11.1655 28.2426 11.12L24.5999 4.73067C24.586 4.70544 24.5655 4.68444 24.5406 4.66989C24.5157 4.65534 24.4874 4.64778 24.4586 4.648ZM41.2319 26.0347C41.3546 26.0347 41.3866 26.088 41.3226 26.1947L39.1039 30.1013L32.1359 42.328C32.1228 42.3518 32.1035 42.3716 32.08 42.3852C32.0565 42.3988 32.0297 42.4058 32.0026 42.4053C31.9755 42.4052 31.949 42.398 31.9256 42.3845C31.9022 42.3709 31.8828 42.3514 31.8693 42.328L22.6612 26.2427C22.6079 26.152 22.6346 26.104 22.7359 26.0987L23.3119 26.0667L41.2372 26.0347H41.2319Z" fill="white"/>
<path fill-rule="evenodd" clip-rule="evenodd" d="M94.3267 35.905H101.125L103.979 39.1958C105.713 37.7908 107.096 36.0148 108.022 34.0038C108.985 31.9575 109.477 29.7277 109.462 27.4735C109.462 23.7518 108.297 20.7562 105.964 18.481C103.649 16.1893 100.58 15.0453 96.759 15.0453C94.8401 15.0453 93.0443 15.3863 91.3737 16.0683C89.69 16.743 88.1685 17.7559 86.9067 19.042C85.4727 20.4885 84.3357 22.1928 83.5579 24.0617C82.7829 25.9173 82.3865 27.9043 82.3913 29.91C82.3913 33.5822 83.5318 36.5888 85.8147 38.9282C88.0977 41.2675 91.0022 42.4372 94.5246 42.4372C95.2526 42.4372 96.0049 42.3803 96.7833 42.2667C97.5766 42.153 98.4035 41.9733 99.2641 41.7295L94.3267 35.905ZM106.731 50.3333L102.76 45.8233C101.355 46.3605 99.9977 46.7583 98.691 47.0187C97.4197 47.291 96.1226 47.4299 94.8214 47.433C89.2774 47.433 84.8795 45.8747 81.6203 42.7543C78.363 39.634 76.7334 35.4192 76.7334 30.1043C76.7334 27.2132 77.2561 24.509 78.2958 21.99C79.2976 19.514 80.8292 17.2783 82.787 15.434C84.6514 13.677 86.8533 12.3022 89.2643 11.3897C91.7134 10.4638 94.3342 10 97.1305 10C102.572 10 106.93 11.5767 110.206 14.7282C113.482 17.8815 115.12 22.0798 115.12 27.3268C115.12 30.5608 114.459 33.5583 113.135 36.3193C111.845 39.0411 109.904 41.4162 107.477 43.242L113.533 50.3333H106.731ZM117.451 23.4292H122.834L126.656 35.223L126.756 35.5163C127.219 36.9628 127.466 38.0335 127.501 38.7338C127.682 38.1802 127.914 37.5972 128.196 36.9775C128.494 36.345 128.856 35.6703 129.288 34.9553L137.178 21.7223L141.023 35.344C141.173 35.8482 141.296 36.3688 141.397 36.9042C141.496 37.4413 141.578 38.0592 141.645 38.7558C141.891 38.0738 142.14 37.4578 142.388 36.9042C142.653 36.3542 142.91 35.8738 143.157 35.4668L150.28 23.4273H156.334L140.381 47.9683L136.411 35.0525C136.255 34.5713 136.122 34.0831 136.013 33.5895C135.906 32.9993 135.815 32.4063 135.741 31.8112C135.423 32.4635 135.1 33.1131 134.772 33.76C134.492 34.3137 134.277 34.7023 134.128 34.9297L126.138 47.9683L117.451 23.4292ZM162.983 32.2017H175.116C175.068 30.6433 174.571 29.415 173.628 28.5222C172.702 27.611 171.452 27.1563 169.88 27.1563C168.094 27.1563 166.58 27.611 165.34 28.5222C164.099 29.4315 163.313 30.658 162.983 32.2017ZM174.817 39.4397L178.665 42.3877C177.293 44.1587 175.803 45.4493 174.2 46.2633C172.594 47.0755 170.75 47.4825 168.665 47.4825C165.174 47.4825 162.356 46.4503 160.203 44.386C158.053 42.307 156.978 39.5772 156.978 36.1983C156.978 32.2347 158.21 28.9842 160.674 26.4505C163.156 23.9003 166.307 22.6243 170.13 22.6243C173.322 22.6243 175.861 23.5997 177.746 25.5485C179.65 27.4827 180.602 30.0823 180.602 33.3475C180.602 33.6225 180.584 33.98 180.552 34.42C180.533 34.8417 180.501 35.355 180.451 35.9545H162.512C162.512 38.05 163.05 39.7238 164.125 40.9742C165.2 42.2098 166.63 42.8258 168.418 42.8258C169.658 42.8258 170.832 42.5343 171.941 41.9495C173.08 41.3359 174.064 40.478 174.819 39.4397H174.817ZM201.542 46.531L203.329 33.2503C203.362 33.0065 203.387 32.7553 203.404 32.495C203.42 32.2182 203.428 31.8203 203.428 31.2997C203.428 29.789 203.054 28.6358 202.312 27.8402C201.567 27.0262 200.482 26.621 199.062 26.621C196.844 26.621 195.108 27.3268 193.85 28.7403C192.594 30.1392 191.774 32.2915 191.393 35.1992L189.906 46.531H184.571L187.671 23.4292H192.808L192.411 26.2067C193.768 24.9893 195.166 24.0873 196.605 23.5025C198.078 22.9139 199.655 22.6155 201.246 22.6243C203.659 22.6243 205.539 23.2495 206.877 24.5017C208.234 25.7355 208.912 27.4753 208.912 29.7175C208.912 30.2858 208.878 30.9513 208.813 31.7158C208.746 32.462 208.647 33.3402 208.514 34.3467L206.877 46.5328L201.542 46.531Z" fill="white"/>
</svg>
