<svg width="244" height="64" viewBox="0 0 244 64" fill="none" xmlns="http://www.w3.org/2000/svg">
<path fill-rule="evenodd" clip-rule="evenodd" d="M57.4667 26.6773C58.1325 24.7031 58.3634 22.6083 58.1433 20.5365C57.9233 18.4646 57.2576 16.465 56.192 14.6747C52.9467 9.10133 46.4267 6.232 40.0587 7.58133C38.6482 6.01972 36.9232 4.77442 34.9969 3.92735C33.0707 3.08028 30.9869 2.65063 28.8827 2.66666C22.3734 2.65333 16.5974 6.78933 14.5947 12.9013C12.5362 13.3134 10.5888 14.1585 8.88174 15.3805C7.1747 16.6025 5.747 18.1735 4.69336 19.9893C3.10077 22.694 2.42012 25.8392 2.75192 28.9603C3.08373 32.0815 4.41039 35.0132 6.53602 37.3227C5.86938 39.2971 5.6379 41.3923 5.85747 43.4646C6.07703 45.5369 6.74244 47.5371 7.80802 49.328C11.0534 54.9013 17.5734 57.768 23.9414 56.4213C25.3513 57.9827 27.076 59.2276 29.0018 60.0743C30.9277 60.9209 33.011 61.35 35.1147 61.3333C41.6294 61.3493 47.408 57.2107 49.4107 51.0933C51.4706 50.6813 53.4193 49.8358 55.1274 48.6128C56.8354 47.3898 58.2637 45.8174 59.3174 44C60.9069 41.2955 61.5854 38.1517 61.2526 35.0323C60.9199 31.913 59.5936 28.9831 57.4694 26.6747L57.4667 26.6773ZM35.1174 57.4987C32.5163 57.5049 29.9941 56.6054 27.984 54.9547C28.0747 54.9067 28.232 54.8213 28.336 54.7573L40.176 48.0107C40.4715 47.8458 40.7174 47.6047 40.8881 47.3125C41.0588 47.0203 41.1481 46.6877 41.1467 46.3493V29.88L46.152 32.7307C46.2054 32.7573 46.24 32.808 46.248 32.864V46.504C46.24 52.568 41.2614 57.4853 35.1174 57.4987ZM11.1787 47.4133C9.87369 45.1935 9.40284 42.5811 9.85069 40.0453C9.93602 40.0987 10.0907 40.192 10.2 40.2533L22.04 47C22.64 47.3467 23.384 47.3467 23.9867 47L38.44 38.7653V44.4667C38.4412 44.4959 38.4353 44.525 38.4227 44.5515C38.4102 44.578 38.3914 44.601 38.368 44.6187L26.4 51.4347C21.0694 54.464 14.2614 52.6613 11.1814 47.408L11.1787 47.4133ZM8.06136 21.9093C9.37146 19.6747 11.424 17.9704 13.8614 17.0933L13.856 17.496V30.9893C13.8544 31.3281 13.9436 31.6612 14.1143 31.9538C14.285 32.2464 14.531 32.488 14.8267 32.6533L29.28 40.8853L24.2774 43.7387C24.2526 43.7545 24.2243 43.7641 24.195 43.7664C24.1657 43.7687 24.1363 43.7638 24.1094 43.752L12.1387 36.928C6.81869 33.888 4.99469 27.1733 8.05869 21.9147L8.06136 21.9093ZM49.1734 31.3493L34.72 23.1147L39.7227 20.2667C39.7472 20.2504 39.7754 20.2404 39.8047 20.2376C39.834 20.2348 39.8635 20.2393 39.8907 20.2507L51.8614 27.0693C57.1894 30.1093 59.016 36.8347 55.9387 42.0907C54.6275 44.3239 52.5767 46.0285 50.1414 46.9093V33.0133C50.1431 32.6752 50.0542 32.3428 49.8839 32.0506C49.7137 31.7585 49.4684 31.5172 49.1734 31.352V31.3493ZM54.152 23.9547C54.0356 23.8838 53.9182 23.8145 53.8 23.7467L41.96 17C41.6643 16.8299 41.3292 16.7404 40.988 16.7404C40.6469 16.7404 40.3117 16.8299 40.016 17L25.5627 25.2347V19.5333C25.5615 19.5041 25.5675 19.4749 25.58 19.4485C25.5925 19.422 25.6113 19.399 25.6347 19.3813L37.6 12.568C42.9334 9.536 49.7467 11.3413 52.8187 16.6027C54.1174 18.824 54.592 21.4267 54.152 23.9547ZM22.8427 34.1147L17.8374 31.2667C17.8112 31.2539 17.7887 31.2347 17.772 31.2109C17.7552 31.1872 17.7447 31.1596 17.7414 31.1307V17.4907C17.744 11.4187 22.736 6.49866 28.8907 6.504C31.4934 6.504 34.0107 7.40533 36.0134 9.048C35.9227 9.096 35.768 9.18133 35.664 9.24266L23.824 15.9893C23.528 16.1539 23.2816 16.3948 23.1104 16.687C22.9392 16.9792 22.8495 17.312 22.8507 17.6507L22.8427 34.112V34.1147ZM25.5627 28.3333L32 24.6667L38.4374 28.3333V35.6667L32 39.3333L25.56 35.6667V28.3333H25.5627Z" fill="white"/>
<path fill-rule="evenodd" clip-rule="evenodd" d="M80 29.91C80 40.462 86.752 47.82 96.108 47.82C105.464 47.82 112.216 40.462 112.216 29.91C112.216 19.358 105.464 12 96.108 12C86.846 12 80.136 19.212 80 29.594V29.91ZM106.042 29.91C106.042 37.46 101.942 42.35 96.108 42.35C90.272 42.35 86.172 37.46 86.172 29.91C86.172 22.358 90.272 17.47 96.108 17.47C101.942 17.47 106.042 22.358 106.042 29.91ZM129.598 47.82C136.688 47.82 140.738 41.818 140.738 34.606C140.738 27.392 136.688 21.39 129.598 21.39C126.318 21.39 123.908 22.698 122.318 24.586V21.874H116.53V56H122.316V44.624C123.908 46.512 126.32 47.82 129.598 47.82ZM122.172 33.88C122.172 29.086 124.872 26.474 128.442 26.474C132.636 26.474 134.902 29.764 134.902 34.606C134.902 39.446 132.636 42.738 128.442 42.738C124.872 42.738 122.172 40.074 122.172 35.378V33.88ZM156.4 47.82C161.464 47.82 165.466 45.158 167.25 40.704L162.284 38.816C161.512 41.43 159.244 42.882 156.4 42.882C152.686 42.882 150.082 40.22 149.648 35.862H167.396V33.928C167.396 26.958 163.49 21.39 156.158 21.39C148.828 21.39 144.102 27.15 144.102 34.606C144.102 42.446 149.164 47.82 156.4 47.82ZM156.11 26.28C159.776 26.28 161.512 28.7 161.56 31.508H149.94C150.808 28.07 153.12 26.28 156.11 26.28ZM171.738 47.288H177.526V32.378C177.526 28.748 180.178 26.812 182.782 26.812C185.964 26.812 187.218 29.086 187.218 32.232V47.288H193.006V30.54C193.006 25.07 189.822 21.39 184.518 21.39C181.238 21.39 178.972 22.89 177.526 24.586V21.874H171.738V47.288ZM209.956 12.532L196.836 47.288H202.962L205.904 39.348H220.854L223.844 47.288H230.064L216.95 12.532H209.956ZM213.33 19.406L218.83 33.926H207.93L213.33 19.406ZM240 12.634H233.828V47.388H240V12.634Z" fill="white"/>
</svg>
