<svg width="145" height="64" viewBox="0 0 145 64" fill="none" xmlns="http://www.w3.org/2000/svg">
<path fill-rule="evenodd" clip-rule="evenodd" d="M30.6399 5.33331H5.33325V30.6453H30.6453V5.33331H30.6399Z" fill="white"/>
<path fill-rule="evenodd" clip-rule="evenodd" d="M58.6667 5.33331H33.3547V30.6453H58.6667V5.33331Z" fill="white"/>
<path fill-rule="evenodd" clip-rule="evenodd" d="M30.6399 33.3547H5.33325V58.6667H30.6453V33.3547H30.6399Z" fill="white"/>
<path fill-rule="evenodd" clip-rule="evenodd" d="M58.6667 33.3547H33.3547V58.6667H58.6667V33.3547Z" fill="white"/>
<path d="M76 51V14.7522H89.5348C92.3075 14.7522 94.6338 15.2714 96.5136 16.3097C98.4052 17.3481 99.8327 18.7758 100.796 20.5929C101.771 22.3982 102.259 24.4513 102.259 26.7522C102.259 29.0767 101.771 31.1416 100.796 32.9469C99.821 34.7522 98.3817 36.174 96.4784 37.2124C94.5751 38.2389 92.2311 38.7522 89.4467 38.7522H80.4763V33.354H88.5655C90.1868 33.354 91.5145 33.0708 92.5484 32.5044C93.5823 31.9381 94.346 31.1593 94.8394 30.1681C95.3446 29.177 95.5972 28.0383 95.5972 26.7522C95.5972 25.4661 95.3446 24.3333 94.8394 23.354C94.346 22.3746 93.5764 21.6136 92.5307 21.0708C91.4968 20.5162 90.1633 20.2389 88.5302 20.2389H82.5383V51H76Z" fill="white"/>
<path d="M114.036 35.0708V51H107.656V14.7522H113.895V28.4336H114.212C114.846 26.8997 115.827 25.6903 117.155 24.8053C118.494 23.9086 120.198 23.4602 122.266 23.4602C124.146 23.4602 125.785 23.8555 127.183 24.646C128.581 25.4366 129.662 26.5929 130.425 28.115C131.201 29.6372 131.589 31.4956 131.589 33.6903V51H125.209V34.6814C125.209 32.8525 124.739 31.4307 123.799 30.4159C122.871 29.3894 121.567 28.8761 119.887 28.8761C118.759 28.8761 117.748 29.1239 116.855 29.6195C115.974 30.1032 115.281 30.8053 114.776 31.7257C114.282 32.646 114.036 33.7611 114.036 35.0708Z" fill="white"/>
<path d="M138.092 51V23.8142H144.471V51H138.092ZM141.299 19.9558C140.289 19.9558 139.419 19.6195 138.691 18.9469C137.962 18.2625 137.598 17.4425 137.598 16.4867C137.598 15.5192 137.962 14.6991 138.691 14.0265C139.419 13.3422 140.289 13 141.299 13C142.321 13 143.191 13.3422 143.907 14.0265C144.636 14.6991 145 15.5192 145 16.4867C145 17.4425 144.636 18.2625 143.907 18.9469C143.191 19.6195 142.321 19.9558 141.299 19.9558Z" fill="white"/>
</svg>
