<svg width="300" height="64" viewBox="0 0 300 64" fill="none" xmlns="http://www.w3.org/2000/svg">
<g clip-path="url(#clip0_2085_2)">
<path d="M85.5482 5.37157C84.6325 4.92019 84.238 5.78039 83.7026 6.21738C83.5194 6.35835 83.3645 6.54156 83.2094 6.71069C81.8709 8.14854 80.3071 9.09339 78.2641 8.98043C75.2772 8.81114 72.7271 9.75599 70.4727 12.054C69.9937 9.22028 68.4017 7.52819 65.9783 6.44284C64.7105 5.87881 63.4283 5.31478 62.5406 4.08815C61.9206 3.21432 61.7516 2.24147 61.4416 1.2827C61.2443 0.704739 61.0471 0.112391 60.3848 0.0136667C59.6663 -0.0989846 59.3845 0.50698 59.1027 1.01484C57.9756 3.08744 57.5388 5.37141 57.581 7.68355C57.6796 12.8861 59.8635 17.0308 64.2028 19.9775C64.696 20.316 64.8228 20.6541 64.6679 21.1478C64.3719 22.1629 64.0196 23.1497 63.7098 24.1648C63.5125 24.8135 63.2165 24.9545 62.5263 24.6722C60.1452 23.6715 58.088 22.191 56.2705 20.4006C53.185 17.3976 50.3954 14.0844 46.9155 11.4902C46.0983 10.8839 45.281 10.3202 44.4356 9.78415C40.8851 6.3161 44.9006 3.46794 45.8305 3.12984C46.8026 2.77734 46.1686 1.56463 43.0267 1.57902C39.8847 1.59295 37.0106 2.65045 33.3475 4.06029C32.8122 4.27182 32.2484 4.42672 31.6708 4.55361C28.3458 3.91932 24.8939 3.77805 21.2871 4.18718C14.496 4.94835 9.07187 8.17701 5.08465 13.6897C0.294433 20.316 -0.832666 27.8444 0.548096 35.6975C1.99931 43.9732 6.19775 50.8251 12.6507 56.1829C19.3431 61.7374 27.0499 64.4585 35.8415 63.9369C41.1814 63.6268 47.127 62.9079 53.8334 57.198C55.524 58.0439 57.2993 58.382 60.2441 58.6358C62.5124 58.8473 64.6963 58.5232 66.3869 58.1708C69.0357 57.6068 68.8526 55.1394 67.8946 54.6884C60.1315 51.051 61.836 52.5313 60.2864 51.3328C64.2313 46.6381 70.1771 41.7598 72.5017 25.9552C72.6848 24.7005 72.5299 23.9109 72.5017 22.8958C72.4876 22.2756 72.6285 22.0361 73.333 21.9653C75.2772 21.7397 77.1652 21.2042 78.8982 20.2454C83.9281 17.4822 85.9568 12.9424 86.4358 7.50033C86.5064 6.66845 86.4218 5.80824 85.5482 5.37157ZM41.7167 54.3498C34.1931 48.4005 30.5441 46.4405 29.0365 46.5252C27.6276 46.6098 27.8812 48.2312 28.191 49.2887C28.5151 50.3318 28.9379 51.051 29.5295 51.9673C29.9381 52.5735 30.22 53.4757 29.1211 54.1527C26.6977 55.6612 22.4849 53.645 22.2876 53.5464C17.3848 50.6419 13.2848 46.807 10.3963 41.5626C7.60666 36.515 5.98654 31.1014 5.71873 25.3209C5.64827 23.9253 6.05684 23.4315 7.4376 23.178C9.25508 22.8396 11.129 22.7689 12.9465 23.0368C20.6253 24.1648 27.1625 27.619 32.6431 33.0892C35.7709 36.2049 38.1379 39.9272 40.5754 43.5645C43.1678 47.4273 45.9574 51.1074 49.5079 54.1243C50.7618 55.1817 51.7621 55.9853 52.7202 56.5776C49.8321 56.9018 45.0135 56.9725 41.7167 54.3498ZM45.3235 31.0168C45.3235 30.3964 45.8167 29.9031 46.4368 29.9031C46.5777 29.9031 46.7044 29.9309 46.8172 29.9732C46.9722 30.0298 47.1131 30.1145 47.2257 30.241C47.4231 30.4386 47.5357 30.7204 47.5357 31.0166C47.5357 31.6369 47.0427 32.1303 46.4229 32.1303C45.8031 32.1303 45.3235 31.6371 45.3235 31.0168ZM56.5245 36.7972C55.806 37.0934 55.0874 37.3469 54.3971 37.3752C53.3263 37.4315 52.1569 36.9944 51.5229 36.4587C50.5367 35.6268 49.8322 35.1618 49.5364 33.7095C49.4095 33.0892 49.4799 32.1304 49.5929 31.5808C49.8464 30.3964 49.5645 29.6352 48.7334 28.9442C48.057 28.3801 47.1976 28.2252 46.2535 28.2252C45.9013 28.2252 45.5775 28.07 45.3378 27.9431C44.9432 27.7458 44.6194 27.2524 44.9292 26.6461C45.0278 26.449 45.507 25.9694 45.6198 25.8849C46.9019 25.1516 48.3813 25.3915 49.7479 25.9413C51.0161 26.4629 51.9741 27.4217 53.3547 28.775C54.7636 30.4103 55.0171 30.8619 55.8203 32.0882C56.4545 33.0469 57.0321 34.0337 57.4266 35.1618C57.6661 35.8668 57.3558 36.4447 56.5245 36.7972Z" fill="white"/>
<path d="M183.762 22.9442C181.769 22.9442 179.759 23.3843 178.455 24.6231C178.342 24.7291 178.236 24.8432 178.131 24.9574H177.175V22.9442H171.932V54.6336H177.175V34.9419C177.175 32.9124 177.612 30.8748 178.828 29.5462C180.043 28.2096 181.906 27.7368 183.762 27.7368C185.609 27.7368 187.481 28.2096 188.696 29.5462C189.912 30.8748 190.349 32.9124 190.349 34.9419C190.349 36.9632 189.912 39.0009 188.696 40.3293C187.481 41.666 185.609 42.1387 183.762 42.1387H180.78V46.9312H183.762C186.849 46.9312 189.952 46.1406 191.978 43.9236C194.004 41.7067 194.725 38.3161 194.725 34.9417C194.725 31.5673 194.004 28.1685 191.978 25.9517C189.952 23.7348 186.849 22.9442 183.762 22.9442ZM110.532 35.7731C110.532 37.8026 110.094 39.8402 108.879 41.1688C107.664 42.4974 105.8 42.9782 103.945 42.9782C102.089 42.9782 100.226 42.4972 99.0103 41.1688C97.7949 39.8402 97.3574 37.8026 97.3574 35.7731C97.3574 33.7517 97.7949 31.7061 99.0103 30.3775C100.226 29.0489 102.089 28.5761 103.945 28.5761H106.926V23.7837H103.945C100.858 23.7837 97.7543 24.5742 95.7287 26.7912C93.7031 29.0082 92.9819 32.3987 92.9819 35.7731C92.9819 39.1476 93.7031 42.5463 95.7287 44.7631C97.7543 46.9801 100.858 47.7706 103.945 47.7706C105.938 47.7706 107.939 47.3224 109.252 46.0917C109.365 45.9857 109.47 45.8717 109.568 45.7575H110.532V47.7706H115.774V16.0734H110.532V35.7731ZM130.691 22.9442C127.482 22.9442 124.257 23.7674 122.151 26.0577C120.052 28.348 119.299 31.861 119.299 35.3575C119.299 38.846 120.052 42.3669 122.151 44.6573C124.257 46.9476 127.482 47.7708 130.691 47.7708C133.899 47.7708 137.124 46.9476 139.231 44.6573C140.308 43.4755 141.038 41.9758 141.492 40.3131H136.306C136.16 40.5331 135.998 40.7451 135.82 40.9407C134.556 42.3182 132.619 42.8072 130.691 42.8072C128.771 42.8072 126.834 42.3182 125.57 40.9407C124.306 39.5632 123.852 37.4522 123.852 35.3576C123.852 33.2631 124.306 31.1519 125.57 29.7746C126.834 28.3971 128.771 27.9081 130.691 27.9081C132.619 27.9081 134.556 28.3971 135.82 29.7746C136.695 30.7283 137.181 32.0242 137.4 33.4342H128.131V37.2812H142.091V35.3576C142.091 31.8611 141.338 28.3482 139.231 26.0579C137.132 23.7676 133.899 22.9442 130.691 22.9442ZM157.008 22.9442C153.807 22.9442 150.574 23.7674 148.476 26.0577C146.369 28.348 145.615 31.861 145.615 35.3575C145.615 38.846 146.369 42.3669 148.476 44.6573C150.574 46.9476 153.807 47.7708 157.008 47.7708C160.216 47.7708 163.441 46.9476 165.548 44.6573C166.633 43.4755 167.354 41.9758 167.808 40.3131H162.623C162.477 40.5331 162.315 40.7451 162.137 40.9407C160.873 42.3182 158.936 42.8072 157.016 42.8072C155.087 42.8072 153.151 42.3182 151.887 40.9407C150.623 39.5632 150.169 37.4522 150.169 35.3576C150.169 33.2631 150.623 31.1519 151.887 29.7746C153.151 28.3971 155.087 27.9081 157.016 27.9081C158.936 27.9081 160.873 28.3971 162.137 29.7746C163.012 30.7283 163.498 32.0242 163.717 33.4342H154.447V37.2812H168.408V35.3576C168.408 31.8611 167.654 28.3482 165.548 26.0579C163.449 23.7676 160.216 22.9442 157.008 22.9442ZM218.181 34.9499C216.083 33.5969 212.85 33.1161 209.649 33.1161H209.763C208.393 33.1161 207.016 32.9287 206.117 32.3989C205.217 31.8772 204.901 31.0702 204.901 30.2716C204.901 29.473 205.217 28.666 206.117 28.1444C207.016 27.6146 208.394 27.4272 209.763 27.4272C211.132 27.4272 212.51 27.6228 213.401 28.1444C214.3 28.666 214.624 29.473 214.624 30.2716H219.964C219.964 28.2096 219.275 26.1393 217.371 24.7864C215.467 23.4333 212.55 22.9443 209.649 22.9443C206.749 22.9443 203.832 23.4333 201.928 24.7864C200.024 26.1394 199.343 28.2096 199.343 30.2716C199.343 32.3337 200.024 34.412 201.928 35.7569C203.832 37.1099 206.749 37.5989 209.649 37.5989C211.156 37.5989 212.809 37.7863 213.798 38.3079C214.795 38.8378 215.151 39.6446 215.151 40.4434C215.151 41.2421 214.794 42.0489 213.798 42.5706C212.809 43.0922 211.286 43.2796 209.771 43.2796C208.264 43.2796 206.741 43.0922 205.744 42.5706C204.756 42.0407 204.399 41.242 204.399 40.4434H198.249C198.249 42.4972 199.003 44.5757 201.109 45.9286C203.216 47.2817 206.441 47.7624 209.649 47.7624C212.85 47.7624 216.083 47.2815 218.181 45.9286C220.288 44.5756 221.041 42.4972 221.041 40.4434C221.041 38.3813 220.288 36.303 218.181 34.9499ZM235.966 22.9442C232.758 22.9442 229.533 23.7674 227.426 26.0577C225.328 28.348 224.566 31.861 224.566 35.3575C224.566 38.846 225.328 42.3669 227.426 44.6573C229.533 46.9476 232.758 47.7708 235.966 47.7708C239.175 47.7708 242.4 46.9476 244.506 44.6573C245.584 43.4755 246.313 41.9758 246.759 40.3131H241.581C241.435 40.5331 241.273 40.7451 241.095 40.9407C239.831 42.3182 237.894 42.8072 235.966 42.8072C234.046 42.8072 232.101 42.3182 230.845 40.9407C229.581 39.5632 229.128 37.4522 229.128 35.3576C229.128 33.2631 229.581 31.1519 230.845 29.7746C232.101 28.3971 234.046 27.9081 235.966 27.9081C237.894 27.9081 239.831 28.3971 241.095 29.7746C241.97 30.7283 242.456 32.0242 242.675 33.4342H233.398V37.2812H247.366V35.3576C247.366 31.8611 246.613 28.3482 244.506 26.0579C242.399 23.7676 239.175 22.9442 235.966 22.9442ZM262.283 22.9442C259.074 22.9442 255.85 23.7674 253.743 26.0577C251.645 28.348 250.883 31.861 250.883 35.3575C250.883 38.846 251.645 42.3669 253.743 44.6573C255.85 46.9476 259.074 47.7708 262.283 47.7708C265.492 47.7708 268.716 46.9476 270.823 44.6573C271.901 43.4755 272.63 41.9758 273.084 40.3131H267.898C267.752 40.5331 267.59 40.7451 267.412 40.9407C266.148 42.3182 264.212 42.8072 262.283 42.8072C260.363 42.8072 258.418 42.3182 257.162 40.9407C255.898 39.5632 255.445 37.4522 255.445 35.3576C255.445 33.2631 255.898 31.1519 257.162 29.7746C258.418 28.3971 260.363 27.9081 262.283 27.9081C264.212 27.9081 266.148 28.3971 267.412 29.7746C268.287 30.7283 268.773 32.0242 268.992 33.4342H259.723V37.2812H273.683V35.3576C273.683 31.8611 272.93 28.3482 270.823 26.0579C268.717 23.7676 265.492 22.9442 262.283 22.9442ZM277.2 14.9648H282.442V47.7708H277.2V14.9648ZM293.502 24.0446L284.897 34.6158L293.502 47.7708H300L291.395 34.6158L300 24.0446H293.502Z" fill="white"/>
</g>
<defs>
<clipPath id="clip0_2085_2">
<rect width="300" height="64" fill="white"/>
</clipPath>
</defs>
</svg>
