<svg width="292" height="64" viewBox="0 0 292 64" fill="none" xmlns="http://www.w3.org/2000/svg">
<g clip-path="url(#clip0_2085_60)">
<path fill-rule="evenodd" clip-rule="evenodd" d="M9.14133 9.06667H18.2853V18.208H27.4293V27.352H27.424H36.5733V18.208H45.712V9.06667H54.8587V45.6373H64V54.7813H36.5707V45.64H27.4293V36.496H18.2827V45.6373L27.4293 45.64V54.7813H0V45.6373H9.14133V9.06667ZM36.5707 45.64H45.712V36.496H36.5733V45.64H36.5707Z" fill="white"/>
</g>
<path fill-rule="evenodd" clip-rule="evenodd" d="M79.2239 48.8435V14.5833H89.7821L96.1218 37.9533L102.387 14.5833H112.97V48.8435H106.417V21.8746L99.4827 48.8435H92.69L85.778 21.8746V48.8435H79.2239ZM119.54 20.6602V14.5865H126.238V20.6633H119.54V20.6602ZM119.54 48.8451V24.0263H126.238V48.8467L119.54 48.8451ZM130.351 41.7628L137.073 40.7574C137.359 42.0352 137.937 43.0057 138.812 43.6676C140.402 45.0356 144.862 44.9279 146.392 43.7246C147.34 43.0849 147.606 41.5602 146.795 40.7321C146.463 40.4217 145.715 40.1336 144.556 39.8692C139.154 38.7007 135.73 37.6335 134.285 36.6677C130.387 34.2515 130.311 28.466 133.878 25.6603C136.715 22.8103 146.535 22.842 149.656 25.122C151.34 26.2287 152.499 27.8643 153.136 30.0303L146.821 31.1751C146.155 28.9552 144.536 28.1889 142.054 28.1826C140.291 28.1826 139.027 28.4264 138.266 28.9077C137.313 29.5142 137.217 30.7745 138.169 31.4332C138.772 31.8686 140.858 32.4845 144.424 33.2777C147.991 34.0726 150.483 35.0463 151.897 36.199C155.109 38.8812 154.5 44.3215 151.086 46.9498C147.722 50.1323 138.044 50.1703 134.296 47.3457C132.286 45.9761 130.97 44.1172 130.351 41.7628ZM181.74 48.8435H175.044V24.0247H181.266V27.554C182.33 25.8867 183.286 24.7879 184.135 24.2591C186.35 22.9022 189.203 23.4104 191.441 24.7024L189.368 30.4293C186.342 28.4549 183.163 29.1468 182.301 32.8597C181.547 35.0004 181.771 45.1464 181.742 48.8451L181.74 48.8435ZM198.939 31.5978L192.862 30.5227C194.497 25.1267 197.827 23.5086 203.825 23.4658C208.355 23.5244 211.569 24.039 213.586 27.1455C214.182 28.2127 214.479 30.1728 214.479 33.0244C214.5 35.762 214.192 43.2844 214.728 45.5153C214.943 46.5508 215.344 47.6607 215.933 48.8451H209.307C209.108 48.4144 208.645 46.8089 208.426 46.1344C206.204 48.2482 203.638 49.4056 200.584 49.4072C195.836 49.499 192.169 46.6268 192.171 42.0684C192.153 39.3451 193.573 36.9622 196.069 35.7937C197.3 35.2078 199.075 34.6996 201.394 34.2626C204.525 33.6862 206.693 33.1495 207.902 32.6507V31.9968C207.902 30.7349 207.584 29.834 206.949 29.2972C206.03 28.3757 201.876 28.1192 200.561 29.1801C199.894 29.6392 199.352 30.4467 198.939 31.5978ZM207.902 36.9257C206.682 37.4245 201.23 38.2874 200.181 39.0759C198.445 40.1953 198.507 42.4658 199.918 43.7737C201.557 45.3364 204.225 44.9342 206.043 43.6106C208.258 42.0542 207.844 39.7235 207.902 36.9273V36.9257ZM220.689 48.8435V14.5833H227.387V48.8435H220.689ZM278.585 48.8435H270.911L267.861 41.0614H253.894L251.01 48.8435H243.526L257.135 14.5833H264.594L278.585 48.8435ZM265.596 35.2902L260.782 22.576L256.063 35.2902H265.596ZM281.722 48.8435V14.5833H288.776V48.8435H281.722ZM171.072 24.0263V29.2624H166.494V39.2643L166.625 42.8047C167.324 44.6033 169.223 43.932 171.046 43.3303L171.619 48.4255C167.724 50.0405 160.545 50.2305 159.989 44.711C159.834 43.8607 159.79 41.7185 159.774 39.2643V29.2624H156.699V24.0279H159.774V19.0958L166.496 15.2642V24.0279H171.071L171.072 24.0263Z" fill="white"/>
<defs>
<clipPath id="clip0_2085_60">
<rect width="64" height="64" fill="white"/>
</clipPath>
</defs>
</svg>
