<svg width="180" height="48" viewBox="0 0 180 48" fill="none" xmlns="http://www.w3.org/2000/svg">
<g clip-path="url(#clip0_2085_77)">
<path fill-rule="evenodd" clip-rule="evenodd" d="M13.794 8C17.624 8 20.826 9.864 24.654 14.752L25.218 14.006C25.598 13.514 25.984 13.038 26.378 12.586L27.004 11.886C29.176 9.576 31.584 8 34.45 8C36.996 8 39.388 9.114 41.432 11.032L41.868 11.458C45.328 14.988 47.702 20.878 47.974 27.51L47.996 28.294L48 28.794C48 31.796 47.44 34.312 46.364 36.194L46.084 36.654L45.868 36.96C45.266 37.8 44.54 38.476 43.696 38.978L43.166 39.262L42.992 39.342C42.7944 39.43 42.5929 39.5087 42.388 39.578C41.5302 39.8617 40.6315 40.0022 39.728 39.994C38.68 39.994 37.736 39.86 36.852 39.564C35.624 39.156 34.526 38.444 33.4 37.332L32.946 36.862C31.44 35.238 29.878 32.91 27.96 29.69L25.1 24.87L24.012 23.08L20.48 29.34L19.794 30.524C15.194 38.312 12.454 40 8.712 40C6.292 40 4.302 39.16 2.84 37.636L2.504 37.268C1.536 36.122 0.83 34.646 0.418 32.89L0.284 32.25C0.129383 31.3993 0.0384634 30.5382 0.012 29.674L0 28.936C0.004 27.446 0.12 25.956 0.348 24.476L0.548 23.33C1.144 20.27 2.204 17.414 3.62 15.016L4.038 14.336C6.392 10.676 9.616 8.23 13.268 8.016L13.794 8ZM13.728 13.23L13.326 13.25C11.666 13.416 10.114 14.596 8.822 16.404L8.546 16.802L8.526 16.838C7.186 18.872 6.156 21.594 5.614 24.528L5.606 24.572C5.33294 26.0592 5.19438 27.568 5.192 29.08L5.196 29.456C5.204 29.816 5.23 30.176 5.276 30.536L5.362 31.118C5.546 32.124 5.876 32.934 6.334 33.534L6.568 33.808C7.174 34.454 7.964 34.792 8.908 34.792C11.108 34.792 12.5 33.44 16.3 27.51L20.65 20.71L21.558 19.308L21.28 18.912C18.22 14.6 16.168 13.232 13.728 13.232V13.23ZM34.12 12.126L33.768 12.14C32.498 12.236 31.322 12.858 30.128 14.006L29.736 14.402C28.858 15.326 27.962 16.53 27.002 18.016L27.534 18.812C27.894 19.36 28.258 19.932 28.634 20.528L29.22 21.478L32.012 26.148L33.402 28.376C34.568 30.228 35.462 31.576 36.218 32.54L36.644 33.064C37.208 33.716 37.702 34.144 38.198 34.41L38.402 34.51C38.856 34.71 39.316 34.786 39.838 34.786C40.19 34.79 40.538 34.74 40.874 34.64C41.55 34.432 42.094 34 42.5 33.366L42.69 33.04L42.844 32.716C43.232 31.798 43.424 30.596 43.424 29.146L43.412 28.248C43.252 22.506 41.536 17.504 39.012 14.652L38.66 14.274C37.32 12.908 35.772 12.126 34.12 12.126Z" fill="white"/>
</g>
<path fill-rule="evenodd" clip-rule="evenodd" d="M63.2 39.4058V9.44917H67.8048V35.0833H83.7728V39.4058H63.2ZM88.3552 39.4058V8.16667H92.6592V39.4058H88.3552ZM103.763 39.8333C101.498 39.8333 99.736 39.2523 98.48 38.0901C97.2256 36.9263 96.5984 35.3984 96.5984 33.5C96.5984 31.6158 97.304 30.0404 98.7168 28.7722C100.131 27.5023 102.387 26.8674 105.485 26.8674H111.339V26.8041C111.339 23.2083 109.675 21.4113 106.347 21.4113C104.955 21.4113 103.782 21.6614 102.827 22.1602C101.885 22.6484 101.088 23.3708 100.514 24.2565L97.5664 21.8815C98.4568 20.4941 99.7095 19.3705 101.192 18.6293C102.691 17.8741 104.395 17.4957 106.302 17.4957H106.776C109.416 17.4957 111.539 18.2509 113.146 19.763C114.754 21.2751 115.557 23.5361 115.557 26.546V39.4058H111.424V35.9178C110.626 37.142 109.521 38.1408 108.218 38.8168C106.912 39.4945 105.427 39.8333 103.763 39.8333ZM104.71 36.0254C106.374 36.0254 107.758 35.6502 108.864 34.9013C109.968 34.1523 110.794 33.1358 111.339 31.8518V30.2257H105.658C103.965 30.2257 102.755 30.4948 102.032 31.0284C101.307 31.5636 100.944 32.2872 100.944 33.2008C100.944 35.0833 102.2 36.0254 104.71 36.0254ZM120.442 39.4058V18.0087H124.746V21.5173C125.52 20.2633 126.482 19.2785 127.629 18.566C128.776 17.8535 130.104 17.4957 131.61 17.4957H132.083C133.747 17.4957 135.146 17.9026 136.28 18.7148C137.413 19.5287 138.251 20.6972 138.797 22.2235C139.629 20.7542 140.691 19.5999 141.981 18.7576C143.274 17.9168 144.736 17.4957 146.371 17.4957H146.845C149.256 17.4957 151.096 18.3301 152.365 19.9989C153.635 21.6678 154.269 24.0143 154.269 27.0384V39.4043H149.965V27.5514C149.965 23.5013 148.56 21.4746 145.747 21.4746H145.317C143.898 21.4746 142.696 21.9211 141.714 22.8125C140.73 23.7039 139.995 24.8281 139.507 26.1818V39.4058H135.203V27.5514C135.203 23.5013 133.797 21.4746 130.986 21.4746H130.555C129.134 21.4746 127.933 21.9211 126.95 22.8125C125.968 23.7039 125.232 24.8281 124.746 26.1818V39.4058H120.442ZM165.008 39.8333C162.741 39.8333 160.979 39.2523 159.725 38.0901C158.469 36.9263 157.842 35.3984 157.842 33.5C157.842 31.6158 158.549 30.0404 159.962 28.7722C161.374 27.5023 163.63 26.8674 166.73 26.8674H172.582V26.8041C172.582 23.2083 170.918 21.4113 167.59 21.4113C166.198 21.4113 165.026 21.6614 164.07 22.1602C163.129 22.6486 162.332 23.371 161.758 24.2565L158.81 21.8815C159.7 20.4941 160.953 19.3705 162.435 18.6293C163.934 17.8741 165.638 17.4957 167.547 17.4957H168.021C170.661 17.4957 172.782 18.2509 174.389 19.763C175.998 21.2767 176.8 23.5361 176.8 26.546V39.4058H172.669V35.9178C171.871 37.142 170.766 38.1408 169.462 38.8168C168.157 39.4945 166.672 39.8333 165.008 39.8333ZM165.954 36.0254C167.618 36.0254 169.003 35.6502 170.107 34.9013C171.211 34.1523 172.037 33.1358 172.582 31.8518V30.2257H166.902C165.208 30.2257 164 30.4948 163.275 31.0284C162.55 31.5636 162.187 32.2872 162.187 33.2008C162.187 35.0833 163.443 36.0254 165.954 36.0254Z" fill="white"/>
<defs>
<clipPath id="clip0_2085_77">
<rect width="48" height="48" fill="white"/>
</clipPath>
</defs>
</svg>
