<svg width="324" height="64" viewBox="0 0 324 64" fill="none" xmlns="http://www.w3.org/2000/svg">
<g clip-path="url(#clip0_2085_82)">
<path fill-rule="evenodd" clip-rule="evenodd" d="M39.4667 13.3333L31.9973 31.4533L24.52 13.3333H19.7253L27.9173 33.1413C28.2446 33.9469 28.8046 34.6367 29.5258 35.1225C30.247 35.6083 31.0967 35.8681 31.9662 35.8686C32.8358 35.8692 33.6857 35.6105 34.4076 35.1257C35.1294 34.6409 35.6903 33.9518 36.0187 33.1466L44.2613 13.3333H39.4667ZM42.656 40.9386L56.32 26.9546L54.456 22.504L39.5333 37.808C38.9241 38.4323 38.5124 39.2224 38.3497 40.0795C38.187 40.9365 38.2806 41.8225 38.6187 42.6266C38.9506 43.4255 39.5117 44.1082 40.2312 44.5884C40.9506 45.0687 41.7963 45.3251 42.6613 45.3253L42.6667 45.3333L64 45.28L62.136 40.8293L42.6613 40.9386H42.656ZM7.68 26.944L9.544 22.4933L24.4667 37.7973C25.7147 39.0746 26.0747 40.968 25.3813 42.616C25.0491 43.4146 24.488 44.0971 23.7685 44.5773C23.0491 45.0576 22.2037 45.3141 21.3387 45.3146L0.00533333 45.2666L0 45.272L1.864 40.8213L21.3387 40.9333L7.68 26.944Z" fill="white"/>
</g>
<path fill-rule="evenodd" clip-rule="evenodd" d="M79.2 47.1842L79.2032 47.1874H83.4V32.8867H96.952V29.1785H83.4V19.8749H98.3072V16.1667H79.2V47.1842ZM106.595 24.78H102.659V47.1842H106.595V24.78ZM116.574 27.7504H116.578C116.49 27.9641 116.406 28.0955 116.141 28.0955C115.922 28.0955 115.837 28.0116 115.837 27.7979V24.78H111.901V47.1842H115.829V34.47C115.829 30.1649 117.845 28.485 121.648 28.485H124.797V24.6929H122.261C119.158 24.6929 117.584 25.597 116.574 27.7504ZM137.886 44.4783C133.666 44.4783 130.517 42.1064 130.251 37.0699H148.642V34.9134C148.642 28.6671 144.795 24.1419 137.794 24.1419C130.792 24.1419 126.333 28.6671 126.333 35.9869C126.333 43.3082 130.661 47.8334 137.878 47.8334C145.094 47.8334 148.061 43.4871 148.726 40.0845H144.622C143.986 42.6305 142.106 44.4783 137.886 44.4783ZM137.792 27.4923C141.952 27.4923 144.525 29.6931 144.704 33.8304H130.358C131.011 29.6029 134.029 27.4923 137.792 27.4923ZM176.571 43.0042C176.475 43.3921 176.354 43.5235 176.043 43.5235C175.73 43.5235 175.597 43.3921 175.512 43.0042L171.136 24.78H164.355L159.979 43.0042C159.883 43.3921 159.763 43.5235 159.451 43.5235C159.138 43.5235 159.006 43.3921 158.922 43.0042L154.546 24.78H150.698V25.6445H150.722L156.061 47.1842H162.818L167.325 28.3979C167.41 28.0924 167.493 28.0084 167.757 28.0084C167.974 28.0084 168.107 28.1003 168.19 28.3979L172.699 47.1842H179.456L184.794 25.6445V24.78H180.947L176.571 43.0042ZM198.515 24.1372C191.907 24.1372 186.661 28.2269 186.661 35.9837C186.661 43.742 191.904 47.8286 198.517 47.8286C205.128 47.8286 210.373 43.7404 210.373 35.9837C210.373 28.2254 205.123 24.1372 198.515 24.1372ZM198.523 44.3833C193.931 44.3833 190.65 41.3734 190.65 35.9837C190.65 30.594 193.931 27.5841 198.523 27.5841C203.115 27.5841 206.398 30.6019 206.398 35.9837C206.398 41.3654 203.117 44.3833 198.523 44.3833ZM219.206 27.7504C219.123 27.9641 219.038 28.0955 218.774 28.0955C218.554 28.0955 218.47 28.0116 218.47 27.7979V24.78H214.534V47.1794H218.461V34.4684C218.461 30.1665 220.477 28.4834 224.28 28.4834H227.432V24.6945H224.893C221.792 24.6945 220.216 25.5986 219.206 27.7519V27.7504ZM234.4 35.2063V16.1667H230.464V47.2032H234.4V40.0481L238.667 36.4476L247.155 47.1953H251.459V46.3308L241.573 33.9855L251.459 25.6445V24.78H246.402L234.4 35.2063ZM265.098 34.3624L261.862 33.7591C258.762 33.1764 257.403 32.5336 257.403 30.6779C257.403 28.8223 258.938 27.4448 262.608 27.4448C266.278 27.4448 268.379 28.8302 268.683 31.8876H272.691C272.246 26.4251 267.962 24.1451 262.592 24.1451C257.222 24.1451 253.451 26.4299 253.451 30.7318C253.451 35.0369 256.538 36.5268 260.978 37.3438L264.211 37.9454C267.362 38.5313 268.936 39.1994 268.936 41.1359C268.936 43.0707 267.357 44.5147 263.558 44.5147C259.758 44.5147 257.238 42.963 256.933 39.9895H252.93C253.302 45.3317 257.699 47.8302 263.562 47.8302C269.426 47.8302 272.88 45.3554 272.88 40.9126C272.88 36.4714 269.248 35.135 265.098 34.3624ZM320.982 16.1667H316.57V47.2032H320.982V16.1667ZM295.17 16.4675L282.938 46.6364V47.2032H287.307L290.405 39.1013H305.128L308.226 47.2032H312.726V46.6443L300.406 16.1667H295.17V16.4675ZM291.859 35.3488L297.117 21.7194H297.114C297.157 21.6049 297.234 21.5061 297.336 21.4365C297.437 21.3669 297.558 21.3297 297.682 21.3299H297.898C298.021 21.3298 298.142 21.367 298.244 21.4366C298.346 21.5062 298.424 21.6049 298.467 21.7194L303.685 35.3488H291.859ZM106.595 16.1667H102.659V20.7346H106.595V16.1667Z" fill="white"/>
<defs>
<clipPath id="clip0_2085_82">
<rect width="64" height="64" fill="white"/>
</clipPath>
</defs>
</svg>
